#tb 0: 1/25
#media_type 0: video
#codec_id 0: rawvideo
#dimensions 0: 176x288
#sar 0: 0/1
0,          0,          0,        1,   152064, 0x1a57c9a8
0,          1,          1,        1,   152064, 0x789265fc
0,          2,          2,        1,   152064, 0x2bb78fcc
0,          3,          3,        1,   152064, 0x5caf8b9d
0,          4,          4,        1,   152064, 0xc526c7cf
